{
  "accessors": [
    {
      "bufferView": 2,
      "componentType": 5126,
      "count": 65532,
      "max": [
        3.7827579975128174,
        -0.0098780002444982529,
        2.8078720569610596
      ],
      "min": [
        -2.3716700077056885,
        -0.47522398829460144,
        -2.5635120868682861
      ],
      "type": "VEC3"
    },
    {
      "bufferView": 2,
      "byteOffset": 786384,
      "componentType": 5126,
      "count": 65532,
      "max": [
        0.9995000958442688,
        0.9844825267791748,
        0.99967348575592041
      ],
      "min": [
        -0.99956214427947998,
        -0.9999997615814209,
        -0.99996912479400635
      ],
      "type": "VEC3"
    },
    {
      "bufferView": 1,
      "componentType": 5126,
      "count": 65532,
      "max": [
        0.9619709849357605,
        0.99681097269058228
      ],
      "min": [
        0.0039169997908174992,
        0.0039059999398887157
      ],
      "type": "VEC2"
    },
    {
      "bufferView": 0,
      "componentType": 5125,
      "count": 359502,
      "max": [
        65531
      ],
      "min": [
        0
      ],
      "type": "SCALAR"
    },
    {
      "bufferView": 2,
      "byteOffset": 1572768,
      "componentType": 5126,
      "count": 65532,
      "max": [
        3.1389939785003662,
        0.12882700562477112,
        2.806830883026123
      ],
      "min": [
        -3.3455750942230225,
        -0.46411600708961487,
        -2.5632379055023193
      ],
      "type": "VEC3"
    },
    {
      "bufferView": 2,
      "byteOffset": 2359152,
      "componentType": 5126,
      "count": 65532,
      "max": [
        0.99940437078475952,
        0.98136037588119507,
        0.99992138147354126
      ],
      "min": [
        -0.99836850166320801,
        -0.9999997615814209,
        -0.99963885545730591
      ],
      "type": "VEC3"
    },
    {
      "bufferView": 1,
      "byteOffset": 524256,
      "componentType": 5126,
      "count": 65532,
      "max": [
        0.99051398038864136,
        0.99852198362350464
      ],
      "min": [
        0.0046780002303421497,
        0.0034660000819712877
      ],
      "type": "VEC2"
    },
    {
      "bufferView": 0,
      "byteOffset": 1438008,
      "componentType": 5125,
      "count": 332769,
      "max": [
        65531
      ],
      "min": [
        0
      ],
      "type": "SCALAR"
    },
    {
      "bufferView": 2,
      "byteOffset": 3145536,
      "componentType": 5126,
      "count": 34876,
      "max": [
        2.8591020107269287,
        -0.0080829998478293419,
        2.3881759643554688
      ],
      "min": [
        -3.6807229518890381,
        -0.44982698559761047,
        -2.5615010261535645
      ],
      "type": "VEC3"
    },
    {
      "bufferView": 2,
      "byteOffset": 3564048,
      "componentType": 5126,
      "count": 34876,
      "max": [
        0.9888572096824646,
        0.97808963060379028,
        0.99767214059829712
      ],
      "min": [
        -0.99798989295959473,
        -0.99999886751174927,
        -0.98768597841262817
      ],
      "type": "VEC3"
    },
    {
      "bufferView": 1,
      "byteOffset": 1048512,
      "componentType": 5126,
      "count": 34876,
      "max": [
        0.99500900506973267,
        0.998462975025177
      ],
      "min": [
        0.0057740001939237118,
        0.0031900000758469105
      ],
      "type": "VEC2"
    },
    {
      "bufferView": 0,
      "byteOffset": 2769084,
      "componentType": 5125,
      "count": 171702,
      "max": [
        34875
      ],
      "min": [
        0
      ],
      "type": "SCALAR"
    }
  ],
  "asset": {
    "extras": {
      "author": "Limerick3D (https://sketchfab.com/Limerick3D)",
      "license": "CC0-1.0 (http://creativecommons.org/publicdomain/zero/1.0/)",
      "source": "https://sketchfab.com/3d-models/hunt-museum-sheep-skin-ff4431c4a6a0418aa78a548c69f8fc6d",
      "title": "Hunt Museum - Sheep Skin"
    },
    "generator": "Sketchfab-7.80.0",
    "version": "2.0"
  },
  "bufferViews": [
    {
      "buffer": 0,
      "byteLength": 3455892,
      "byteOffset": 0,
      "name": "floatBufferViews",
      "target": 34963
    },
    {
      "buffer": 0,
      "byteLength": 1327520,
      "byteOffset": 3455892,
      "byteStride": 8,
      "name": "floatBufferViews",
      "target": 34962
    },
    {
      "buffer": 0,
      "byteLength": 3982560,
      "byteOffset": 4783412,
      "byteStride": 12,
      "name": "floatBufferViews",
      "target": 34962
    }
  ],
  "buffers": [
    {
      "byteLength": 8765972,
      "uri": "scene.bin"
    }
  ],
  "images": [
    {
      "uri": "textures/SheepSkin_baseColor.jpeg"
    }
  ],
  "materials": [
    {
      "doubleSided": true,
      "name": "SheepSkin",
      "pbrMetallicRoughness": {
        "baseColorFactor": [
          1,
          1,
          1,
          1
        ],
        "baseColorTexture": {
          "index": 0,
          "texCoord": 0
        },
        "metallicFactor": 0,
        "roughnessFactor": 1
      }
    }
  ],
  "meshes": [
    {
      "primitives": [
        {
          "attributes": {
            "NORMAL": 1,
            "POSITION": 0,
            "TEXCOORD_0": 2
          },
          "indices": 3,
          "material": 0,
          "mode": 4
        }
      ]
    },
    {
      "primitives": [
        {
          "attributes": {
            "NORMAL": 5,
            "POSITION": 4,
            "TEXCOORD_0": 6
          },
          "indices": 7,
          "material": 0,
          "mode": 4
        }
      ]
    },
    {
      "primitives": [
        {
          "attributes": {
            "NORMAL": 9,
            "POSITION": 8,
            "TEXCOORD_0": 10
          },
          "indices": 11,
          "material": 0,
          "mode": 4
        }
      ]
    }
  ],
  "nodes": [
    {
      "children": [
        1
      ],
      "name": "RootNode (gltf orientation matrix)",
      "rotation": [
        -0.70710678118654746,
        -0,
        -0,
        0.70710678118654757
      ]
    },
    {
      "children": [
        2
      ],
      "matrix": [
        -0.043221175670623779,
        0.096020795404911041,
        -0.99444049596786499,
        0,
        -6.9388939039072284e-18,
        0.99537068605422974,
        0.096110604703426361,
        0,
        0.99906551837921143,
        0.0041540130041539669,
        -0.043021086603403091,
        0,
        -0.068864159286022186,
        -0.0062069324776530266,
        0.19481270015239716,
        1
      ],
      "name": "RootNode (model correction matrix)"
    },
    {
      "children": [
        3,
        4,
        5
      ],
      "name": "SheepSkin.obj.cleaner.materialmerger.gles"
    },
    {
      "mesh": 0,
      "name": ""
    },
    {
      "mesh": 1,
      "name": ""
    },
    {
      "mesh": 2,
      "name": ""
    }
  ],
  "samplers": [
    {
      "magFilter": 9729,
      "minFilter": 9987,
      "wrapS": 10497,
      "wrapT": 10497
    }
  ],
  "scene": 0,
  "scenes": [
    {
      "name": "OSG_Scene",
      "nodes": [
        0
      ]
    }
  ],
  "textures": [
    {
      "sampler": 0,
      "source": 0
    }
  ]
}

